# xmcd
#
# Track frame offsets: 
#        150
#        6721
#        21851
#        36069
#        48796
#        69820
#        76603
#        97174
#        123720
#        145465
#        170477
#        191182
#        214617
#        219114
#        249556
#        254406
#
# Disc length: 3737 seconds
#
# Revision: 0
# Processed by: cddbd v1.5.2PL0 Copyright (c) Steve Scherf et al.
# Submitted via: ExactAudioCopy v0.95b4
#
DISCID=e20e9710
DTITLE=Eric Johnson - 1984-07-31 - Austin City Limits - Austin TX - Di
DTITLE=sc 1
DYEAR=1984
DGENRE=Rock
TTITLE0=Intro
TTITLE1=A Song For Life
TTITLE2=April Come She Will
TTITLE3=Tribute To Jerry Reed
TTITLE4=I'm Finding You
TTITLE5=Changing Of The Microphones
TTITLE6=Soulful Terrain
TTITLE7=Friends
TTITLE8=Victory
TTITLE9=Emerald Eyes
TTITLE10=Down Here On The Ground
TTITLE11=All I Need
TTITLE12=I'm Trying (false start)
TTITLE13=I'm Trying
TTITLE14=Trademark (false start)
TTITLE15=Trademark
EXTD=
EXTT0=
EXTT1=
EXTT2=
EXTT3=
EXTT4=
EXTT5=
EXTT6=
EXTT7=
EXTT8=
EXTT9=
EXTT10=
EXTT11=
EXTT12=
EXTT13=
EXTT14=
EXTT15=
PLAYORDER=
